<svg width="29" height="29" viewBox="0 0 29 29" fill="none" xmlns="http://www.w3.org/2000/svg">
<path d="M26.4622 17.1571C26.2322 16.5881 25.5844 16.3132 25.0154 16.5433C24.4464 16.7733 24.1716 17.4211 24.4016 17.9901L25.7104 21.2276L21.8233 19.514C21.5419 19.39 21.2217 19.3881 20.9389 19.5088C19.6104 20.0756 18.1873 20.363 16.7091 20.363C10.7597 20.363 6.76308 15.7047 6.76308 11.354C6.76308 6.38642 11.2248 2.34501 16.7091 2.34501C22.1933 2.34501 26.6551 6.38642 26.6551 11.354C26.6551 11.7415 26.619 12.2056 26.5561 12.6271C26.4656 13.2342 26.8842 13.7996 27.4913 13.8902C28.0984 13.981 28.6639 13.5621 28.7544 12.9551C28.8339 12.4222 28.8777 11.8536 28.8777 11.354C28.8777 8.33517 27.5994 5.50262 25.278 3.37812C22.9842 1.27867 19.941 0.122437 16.7091 0.122437C13.4771 0.122437 10.434 1.27867 8.14013 3.37806C6.0658 5.27658 4.82516 7.74075 4.58451 10.3978C1.97538 12.1256 0.428748 14.8943 0.428748 17.8766C0.428748 19.7396 1.01567 21.5072 2.13291 23.0284L0.509761 27.0436C0.340234 27.4629 0.44175 27.9431 0.766523 28.2579C0.978168 28.4632 1.25704 28.5714 1.54026 28.5714C1.69156 28.5714 1.84414 28.5405 1.98827 28.477L6.6684 26.4139C7.84569 26.8521 9.09017 27.074 10.3747 27.074C10.4025 27.074 10.4298 27.0718 10.457 27.0698C12.315 27.0557 14.1212 26.567 15.6855 25.6525C17.0868 24.8333 18.2394 23.7079 19.0475 22.3788C19.8364 22.2371 20.6075 22.0231 21.356 21.737L27.3181 24.3652C27.4623 24.4287 27.6148 24.4597 27.7661 24.4597C28.0493 24.4596 28.3282 24.3514 28.5399 24.1462C28.8647 23.8313 28.9662 23.3512 28.7967 22.9318L26.4622 17.1571ZM10.3748 24.8486C10.3596 24.8486 10.3449 24.8502 10.3298 24.8508C9.19507 24.8451 8.1029 24.622 7.08291 24.1868C6.80014 24.0661 6.47992 24.068 6.19854 24.1921L3.59608 25.3393L4.4356 23.2626C4.59079 22.8787 4.51961 22.4403 4.25102 22.1252C3.20446 20.8974 2.65132 19.4283 2.65132 17.8766C2.65132 16.1007 3.39838 14.4181 4.70548 13.1422C5.11243 15.3606 6.26067 17.4827 7.99277 19.1498C10.1482 21.2241 12.9992 22.4259 16.0777 22.5706C14.6324 23.9933 12.564 24.8486 10.3748 24.8486Z" fill="#233670"/>
<path d="M16.6533 12.5133C17.267 12.5133 17.7646 12.0157 17.7646 11.402C17.7646 10.7882 17.267 10.2907 16.6533 10.2907C16.0395 10.2907 15.542 10.7882 15.542 11.402C15.542 12.0157 16.0395 12.5133 16.6533 12.5133Z" fill="#233670"/>
<path d="M21.0983 12.5133C21.7121 12.5133 22.2096 12.0157 22.2096 11.402C22.2096 10.7882 21.7121 10.2907 21.0983 10.2907C20.4846 10.2907 19.9871 10.7882 19.9871 11.402C19.9871 12.0157 20.4846 12.5133 21.0983 12.5133Z" fill="#233670"/>
<path d="M12.2082 12.5133C12.822 12.5133 13.3195 12.0157 13.3195 11.402C13.3195 10.7882 12.822 10.2907 12.2082 10.2907C11.5945 10.2907 11.0969 10.7882 11.0969 11.402C11.0969 12.0157 11.5945 12.5133 12.2082 12.5133Z" fill="#233670"/>
</svg>
