<svg width="25" height="24" viewBox="0 0 25 24" fill="none" xmlns="http://www.w3.org/2000/svg">
<path d="M25 12C25 5.3736 19.4025 0 12.5 0C5.5975 0 0 5.3736 0 12C0 18.6264 5.5975 24 12.5 24C12.5734 24 12.6465 23.9985 12.7197 23.9973V14.6558H10.0342V11.6512H12.7197V9.44019C12.7197 6.87598 14.3503 5.48035 16.733 5.48035C17.874 5.48035 18.8547 5.56201 19.1406 5.59845V8.27838H17.4976C16.2014 8.27838 15.9504 8.86981 15.9504 9.73755V11.6512H19.0498L18.6459 14.6558H15.9504V23.5364C21.1752 22.0984 25 17.4774 25 12Z" fill="#475FA9"/>
</svg>
