<svg width="33" height="42" viewBox="0 0 33 42" fill="none" xmlns="http://www.w3.org/2000/svg">
<path d="M11.775 15.6484C7.40051 15.6484 3.6364 17.5814 1.29654 20.6334C-0.0259905 22.3628 0.787873 24.9061 2.82253 25.6183C4.14506 26.0252 5.56932 25.5165 6.38319 24.2957C7.50225 22.668 9.33344 21.6507 11.5716 21.6507C15.3357 21.6507 18.2859 24.601 18.2859 28.4668C18.2859 32.4344 15.4374 35.2829 11.6733 35.2829C9.43518 35.2829 7.50225 34.2656 6.38319 32.6379C5.56932 31.5188 4.14506 30.9084 2.82253 31.4171C0.68614 32.1292 -0.0259905 34.6725 1.29654 36.402C3.6364 39.454 7.40051 41.3869 11.775 41.3869C19.3033 41.3869 24.8986 35.6899 24.8986 28.5685C25.0003 21.3455 19.3033 15.6484 11.775 15.6484Z" fill="white"/>
<path d="M8.72311 6.7973L11.8768 13.41C14.3184 13.41 16.5565 14.0203 18.5912 14.9359C19.2016 15.2411 19.7103 14.6308 19.5068 14.0204L14.0132 2.52456C13.0976 0.795102 10.8595 0.0829333 9.13004 1.40546C7.90925 2.32106 7.50231 3.94881 8.11271 5.37308C8.21444 5.88174 8.41791 6.28864 8.72311 6.7973Z" fill="white"/>
<path d="M21.1345 3.44025C19.5068 3.74545 18.3877 5.27147 18.3877 6.89919C18.3877 7.30612 18.4894 7.71307 18.6929 8.12L23.8813 19.1071C24.1865 19.7175 25.0003 19.5141 25.0003 18.8019V6.79742C25.0003 4.66104 23.1691 3.13506 21.1345 3.44025Z" fill="white"/>
<path d="M30.4938 10.5611C30.392 10.4594 30.2903 10.4594 30.0869 10.4594C28.3574 9.95074 26.6279 11.4767 26.6279 13.3079V24.0916C26.6279 24.702 27.5435 24.9054 27.747 24.295L32.0198 14.4269C32.7319 13.0027 32.0198 11.2732 30.4938 10.5611Z" fill="white"/>
</svg>
