<svg width="176" height="56" viewBox="0 0 176 56" fill="none" xmlns="http://www.w3.org/2000/svg">
<g clip-path="url(#clip0)">
<path d="M27.1336 20.5801C25.0843 20.5801 23.1988 21.9739 22.625 23.9417L16.149 45.0954L9.59101 24.0237C9.01719 21.9739 7.04979 20.5801 4.91845 20.5801C1.55748 20.5801 -0.819791 23.8597 0.245881 27.0574L7.62362 49.687C8.77127 53.2946 12.1322 55.7543 15.9851 55.7543C19.8379 55.7543 23.1169 53.2946 24.3465 49.687L31.8062 26.8934C32.7079 23.7777 30.4126 20.5801 27.1336 20.5801Z" fill="#2FBBEB"/>
<path d="M121.487 3.68945C118.945 3.68945 116.896 5.73923 116.896 8.28096V51.3264C116.896 53.8681 118.945 55.9179 121.487 55.9179C124.028 55.9179 126.077 53.8681 126.077 51.3264V8.28096C126.159 5.73923 124.028 3.68945 121.487 3.68945Z" fill="#2FBBEB"/>
<path d="M92.6316 20.5801C82.2208 20.5801 74.4332 28.4512 74.4332 38.2902C74.4332 48.2111 82.1389 55.9183 92.6316 55.9183C96.2385 55.9183 99.4356 54.9344 102.223 53.3766C102.96 54.9344 104.518 55.9183 106.321 55.9183C108.863 55.9183 110.912 53.8685 110.912 51.3268V37.8802C110.666 28.2053 102.879 20.5801 92.6316 20.5801ZM92.4677 47.8012C87.3033 47.8012 83.5324 43.7836 83.5324 38.3722C83.5324 32.8788 87.4672 28.9432 92.6316 28.9432C97.7961 28.9432 101.731 32.8788 101.731 38.3722C101.731 43.7016 97.6321 47.8012 92.4677 47.8012Z" fill="#2FBBEB"/>
<path d="M65.1701 3.68945C62.6289 3.68945 60.6615 5.73923 60.6615 8.19897V22.8754C58.5301 21.7275 56.0709 20.9076 53.4477 20.6616C52.7919 20.5796 52.218 20.5796 51.5622 20.5796C50.8245 20.5796 50.1687 20.6616 49.5129 20.6616C49.185 20.6616 48.8571 20.7436 48.6111 20.8256C48.2832 20.9076 47.9553 20.9076 47.6275 20.9896C47.2176 21.0716 46.8077 21.1536 46.3978 21.3176C46.2339 21.3996 46.0699 21.3996 45.906 21.4815C45.4141 21.6455 44.9223 21.8095 44.4304 21.9735C44.4304 21.9735 44.4304 21.9735 44.3485 21.9735C41.3974 23.1214 38.9381 25.0072 37.0527 27.4669C36.8887 27.7129 36.7248 27.9589 36.6428 28.1228C34.5935 30.9925 33.4458 34.5181 33.4458 38.2897C33.4458 46.7348 39.0201 53.5401 47.1356 55.4259C47.2176 55.4259 47.2996 55.5079 47.3815 55.5079C47.9554 55.5899 48.5292 55.7539 49.103 55.8359C49.267 55.8359 49.3489 55.9179 49.5129 55.9179C50.2506 55.9998 50.9064 55.9998 51.6442 55.9998C52.3 55.9998 52.9558 55.9998 53.5296 55.9179C62.4649 55.0979 69.1868 48.2107 69.7607 39.6836L69.8426 39.7656V8.19897C69.7607 5.73923 67.7113 3.68945 65.1701 3.68945ZM60.4975 40.0936C60.4975 40.1755 60.4975 40.1755 60.4975 40.2575C60.4975 40.3395 60.4155 40.5035 60.4155 40.5855C59.8417 42.9632 58.5301 44.849 56.6447 46.1609C55.1691 47.1448 53.4477 47.6367 51.5622 47.6367C48.4472 47.6367 45.824 46.2429 44.1845 43.9471C44.0206 43.7832 43.9386 43.6192 43.7746 43.4552C42.9549 41.9793 42.463 40.2575 42.463 38.3717C42.463 32.8783 46.3978 28.9427 51.5622 28.9427C53.4477 28.9427 55.2511 29.5167 56.6447 30.4186C58.5301 31.7304 59.8417 33.6162 60.4155 35.994C60.4155 36.076 60.4975 36.24 60.4975 36.322C60.4975 36.4039 60.4975 36.4039 60.4975 36.4859C60.5795 37.0599 60.6615 37.6338 60.6615 38.2897C60.6615 38.8637 60.5795 39.5196 60.4975 40.0936Z" fill="#2FBBEB"/>
<path d="M147.637 20.5801C141.489 20.5801 136.324 23.2038 133.045 27.4673C131.16 29.8451 132.307 33.4527 135.177 34.3546C137.062 34.9285 139.029 34.1906 140.177 32.5508C141.735 30.255 144.358 28.8612 147.391 28.8612C152.555 28.8612 156.736 32.8788 156.736 38.2902C156.736 43.7836 152.801 47.7192 147.637 47.7192C144.522 47.7192 141.898 46.3253 140.259 44.0296C139.111 42.4717 137.144 41.6518 135.259 42.3077C132.307 43.2096 131.242 46.8173 133.127 49.195C136.406 53.3766 141.571 56.0823 147.637 56.0823C158.048 56.0823 165.917 48.2111 165.917 38.3722C165.835 28.4512 157.966 20.5801 147.637 20.5801Z" fill="#2FBBEB"/>
<path d="M143.292 8.36312L147.719 17.4641C151.08 17.5461 154.195 18.2841 156.982 19.5959C157.72 19.9239 158.539 19.186 158.211 18.366L150.506 2.45975C149.276 1.83061e-05 146.079 -0.819894 143.784 0.81993C142.062 2.0498 141.571 4.42754 142.39 6.31334C142.636 7.05126 142.964 7.70719 143.292 8.36312Z" fill="#2FBBEB"/>
<path d="M160.507 3.77207C158.293 4.18202 156.736 6.2318 156.736 8.52756C156.736 9.10149 156.9 9.67543 157.146 10.1674L164.278 25.3358C164.688 26.1557 165.835 25.8277 165.835 25.0078V8.19959C165.835 5.41189 163.376 3.28012 160.507 3.77207Z" fill="#2FBBEB"/>
<path d="M173.541 13.6108C173.377 13.5288 173.213 13.4468 173.049 13.4468C170.59 12.7908 168.294 14.8406 168.294 17.3823V32.3047C168.294 33.2067 169.524 33.4526 169.852 32.6327L175.672 18.9402C176.574 16.8904 175.59 14.5127 173.541 13.6108Z" fill="#2FBBEB"/>
</g>
<defs>
<clipPath id="clip0">
<rect width="176" height="56" fill="white"/>
</clipPath>
</defs>
</svg>
